<svg width="64" height="64" viewBox="0 0 64 64" fill="none" xmlns="http://www.w3.org/2000/svg">
<rect width="64" height="64" rx="12" fill="#D9D9D9"/>
<rect width="64" height="64" rx="12" fill="url(#paint0_linear_20_96)"/>
<path d="M47.0001 30.998H51C51 20.738 43.2541 13 32.9802 13V17C41.1041 17 47.0001 22.886 47.0001 30.998Z" fill="url(#paint1_linear_20_96)"/>
<path d="M33.0003 25C37.2063 25 39.0002 26.794 39.0002 31H43.0002C43.0002 24.55 39.4502 21 33.0003 21V25ZM39.8442 35.886C39.4599 35.5367 38.9549 35.3504 38.4359 35.3665C37.9168 35.3825 37.4243 35.5996 37.0623 35.972L32.2763 40.894C31.1243 40.674 28.8084 39.952 26.4244 37.574C24.0404 35.188 23.3184 32.866 23.1044 31.722L28.0224 26.934C28.3952 26.5722 28.6126 26.0796 28.6287 25.5604C28.6447 25.0412 28.4581 24.5361 28.1084 24.152L20.7185 16.026C20.3686 15.6407 19.8822 15.407 19.3628 15.3745C18.8433 15.342 18.3317 15.5133 17.9365 15.852L13.5966 19.574C13.2508 19.921 13.0444 20.3829 13.0166 20.872C12.9866 21.372 12.4146 33.216 21.5985 42.404C29.6104 50.414 39.6462 51 42.4102 51C42.8142 51 43.0622 50.988 43.1282 50.984C43.6172 50.9566 44.0788 50.7493 44.4242 50.402L48.1441 46.06C48.4831 45.665 48.6547 45.1535 48.6226 44.6341C48.5905 44.1146 48.3571 43.6282 47.9721 43.278L39.8442 35.886Z" fill="url(#paint2_linear_20_96)"/>
<defs>
<linearGradient id="paint0_linear_20_96" x1="-4.33936" y1="64" x2="68.7622" y2="64" gradientUnits="userSpaceOnUse">
<stop stop-color="#C74662"/>
<stop offset="1" stop-color="#7251EA"/>
</linearGradient>
<linearGradient id="paint1_linear_20_96" x1="41.9901" y1="13" x2="41.9901" y2="30.998" gradientUnits="userSpaceOnUse">
<stop stop-color="white"/>
<stop offset="1" stop-color="#C1C1C1"/>
</linearGradient>
<linearGradient id="paint2_linear_20_96" x1="30.8132" y1="15.3706" x2="30.8132" y2="51" gradientUnits="userSpaceOnUse">
<stop stop-color="white"/>
<stop offset="1" stop-color="#C1C1C1"/>
</linearGradient>
</defs>
</svg>
