<svg width="45" height="45" viewBox="0 0 45 45" fill="none" xmlns="http://www.w3.org/2000/svg">
<rect width="45" height="45" rx="10" fill="url(#paint0_linear_47_310)" fill-opacity="0.9"/>
<g clip-path="url(#clip0_47_310)">
<path d="M27.0761 6.04511C27.0245 6.06445 22.2744 10.7824 16.5187 16.5316C5.55521 27.4887 5.9097 27.1213 6.03217 27.5402C6.08373 27.7143 17.0085 38.6842 17.3308 38.884C17.8206 39.1869 16.9828 39.9732 28.4747 28.4812C39.4447 17.5113 39.0902 17.8787 38.9677 17.4598C38.9162 17.2986 28.1847 6.50273 27.7593 6.18691C27.5208 6.01289 27.3017 5.96777 27.0761 6.04511ZM34.6622 17.2471C34.8685 17.4533 34.8878 17.4984 34.8556 17.7434C34.8234 17.9883 34.7074 18.1236 33.3152 19.5158C32.3419 20.4891 31.7425 21.0434 31.6072 21.0885C31.2204 21.2174 30.7499 20.8629 30.7499 20.4375C30.7499 20.1732 30.9497 19.9348 32.4064 18.4846C33.8695 17.0344 33.8824 17.0215 34.1595 17.0215C34.3915 17.0215 34.4753 17.0602 34.6622 17.2471ZM22.1519 18.5748C23.5312 19.0002 24.846 20.0186 25.7355 21.3463C26.6056 22.6547 26.8634 24.1951 26.3865 25.2199C26.1351 25.7613 25.7613 26.1287 25.2199 26.3865C24.8074 26.5863 24.7558 26.5928 23.9824 26.5863C23.254 26.5799 23.1251 26.5605 22.6546 26.393C20.4503 25.5809 18.607 23.3766 18.4072 21.3012C18.2654 19.8832 19.071 18.7166 20.3859 18.4395C20.7919 18.3557 21.6492 18.4201 22.1519 18.5748ZM13.831 23.9437C14.0566 24.0404 14.2499 24.324 14.2499 24.5625C14.2499 24.8268 14.0501 25.0652 12.5935 26.509C11.2078 27.8883 11.1046 27.9785 10.879 27.9785C10.5568 27.9785 10.3505 27.8689 10.2216 27.624C9.98959 27.2051 10.054 27.1148 11.6847 25.4842C12.9995 24.1758 13.3412 23.8728 13.5603 23.86C13.5861 23.8535 13.7085 23.8922 13.831 23.9437Z" fill="url(#paint1_linear_47_310)"/>
<path d="M8.03027 21.9521C7.14726 22.2808 6.3416 22.6095 6.24492 22.6869C5.96777 22.9125 5.95488 23.1767 6.19336 23.8342C6.30293 24.15 6.41894 24.4465 6.45117 24.498C6.50273 24.5754 6.87656 24.2338 8.13984 22.964C9.03574 22.0746 9.73828 21.3398 9.70605 21.3463C9.66738 21.3527 8.91973 21.6234 8.03027 21.9521Z" fill="url(#paint2_linear_47_310)"/>
<path d="M33.9726 24.917C32.5031 26.3865 31.3301 27.5918 31.3752 27.5918C31.4138 27.5918 32.0519 27.3727 32.7802 27.102C34.224 26.5734 34.398 26.5477 34.6752 26.8442C34.9781 27.1664 34.8879 27.7336 34.4947 27.9141C34.0822 28.1074 30.8595 29.2676 30.7435 29.2676C30.5631 29.2676 30.3568 29.1516 30.2021 28.9647L30.0732 28.81L27.2373 31.6459C25.684 33.2057 24.4207 34.4947 24.4336 34.5076C24.4594 34.527 36.7441 30.0217 38.4392 29.3707C38.7679 29.2483 39 28.9711 39 28.7133C39 28.5715 36.7699 22.3775 36.6861 22.2938C36.6668 22.268 35.4422 23.4475 33.9726 24.917Z" fill="url(#paint3_linear_47_310)"/>
<path d="M9.62218 33.2637C9.77687 33.7148 11.5622 38.6004 11.6138 38.6906C11.6847 38.826 12.0005 39 12.181 39C12.3099 39 14.4368 38.2459 14.5206 38.1686C14.5464 38.1428 13.4507 37.0084 12.0778 35.6484C10.7114 34.282 9.60929 33.2121 9.62218 33.2637Z" fill="url(#paint4_linear_47_310)"/>
</g>
<defs>
<linearGradient id="paint0_linear_47_310" x1="-3.05111" y1="45" x2="48.3484" y2="45" gradientUnits="userSpaceOnUse">
<stop stop-color="#C74662"/>
<stop offset="1" stop-color="#7251EA"/>
</linearGradient>
<linearGradient id="paint1_linear_47_310" x1="22.4999" y1="39.0217" x2="22.4999" y2="6.00868" gradientUnits="userSpaceOnUse">
<stop stop-color="white"/>
<stop offset="1" stop-color="#C1C1C1"/>
</linearGradient>
<linearGradient id="paint2_linear_47_310" x1="7.86607" y1="24.5084" x2="7.86607" y2="21.3462" gradientUnits="userSpaceOnUse">
<stop stop-color="white"/>
<stop offset="1" stop-color="#C1C1C1"/>
</linearGradient>
<linearGradient id="paint3_linear_47_310" x1="31.7167" y1="34.5077" x2="31.7167" y2="22.2933" gradientUnits="userSpaceOnUse">
<stop stop-color="white"/>
<stop offset="1" stop-color="#C1C1C1"/>
</linearGradient>
<linearGradient id="paint4_linear_47_310" x1="12.0716" y1="39" x2="12.0716" y2="33.2619" gradientUnits="userSpaceOnUse">
<stop stop-color="white"/>
<stop offset="1" stop-color="#C1C1C1"/>
</linearGradient>
<clipPath id="clip0_47_310">
<rect width="33" height="33" fill="white" transform="translate(6 6)"/>
</clipPath>
</defs>
</svg>
