<svg width="40" height="40" viewBox="0 0 40 40" fill="none" xmlns="http://www.w3.org/2000/svg">
<path d="M8.24219 0.100662C7.67969 0.350662 7.5 0.764725 7.5 1.80379V2.49129H5.72656C3.71875 2.49129 3.21875 2.5616 2.375 2.97566C1.65625 3.31941 0.835938 4.13972 0.492188 4.84285C0.0625 5.71004 0 6.14754 0 8.21004V10.0694H20H40V8.21004C40 6.14754 39.9375 5.71004 39.5078 4.84285C39.1719 4.14754 38.3438 3.31941 37.6328 2.97566C36.9844 2.65535 36.25 2.49129 35.4531 2.49129H34.8516L34.8281 4.4991C34.8047 6.69441 34.7891 6.78816 34.3125 7.13191C34.0156 7.35847 33.3828 7.38191 33.0703 7.1866C32.5312 6.85066 32.5469 6.91316 32.5 3.69441C32.4609 0.90535 32.4531 0.772537 32.2969 0.569412C31.75 -0.164963 30.8125 -0.180588 30.3359 0.53035C30.1797 0.764725 30.1562 0.889725 30.1562 1.63972V2.49129H28.7109H27.2656V4.4991C27.2656 6.3741 27.2578 6.53035 27.1094 6.77254C26.6328 7.55379 25.5156 7.51472 25.1016 6.71004C24.9219 6.3741 24.9219 6.3116 24.9219 3.64754C24.9219 0.639725 24.9062 0.553787 24.4453 0.21785C24.0938 -0.0321503 23.4688 -0.0399628 23.1562 0.194412C22.6875 0.538162 22.6172 0.71785 22.5938 1.63972L22.5625 2.49129H21.1641H19.7656V4.42879C19.7656 6.28035 19.7578 6.38191 19.5938 6.71004C19.1875 7.49129 18.0859 7.55379 17.6016 6.8116C17.4766 6.6241 17.4609 6.32722 17.4219 3.69441C17.3828 0.90535 17.375 0.772537 17.2188 0.569412C16.9297 0.170975 16.6641 0.0303497 16.2266 0.0303497C15.9219 0.0303497 15.75 0.0772247 15.5547 0.21785C15.1797 0.491287 15.0781 0.795975 15.0781 1.71004V2.49129H13.6328H12.1875V4.4991C12.1875 6.3741 12.1797 6.53035 12.0312 6.77254C11.7031 7.3116 11.0312 7.48347 10.4688 7.17097C9.88281 6.84285 9.89062 6.86629 9.84375 3.60847C9.80469 0.827225 9.79688 0.694412 9.64062 0.483475C9.32031 0.0459747 8.73438 -0.118088 8.24219 0.100662Z" fill="url(#paint0_linear_40_22)"/>
<path d="M0 24.2725C0 35.8507 0 36.1553 0.15625 36.7413C0.351562 37.5303 0.695312 38.1163 1.28125 38.71C1.875 39.296 2.46094 39.6397 3.25 39.835C3.84375 39.9913 4.14844 39.9913 20 39.9913C35.8281 39.9913 36.1562 39.9913 36.75 39.835C37.5703 39.6319 38.0625 39.3428 38.6797 38.7413C39.3047 38.1241 39.6406 37.546 39.8438 36.7413C40 36.1553 40 35.8507 40 24.2725V12.4132H20H0V24.2725ZM12.4219 16.4913C12.5625 16.5928 12.7578 16.7725 12.8438 16.8897C13 17.1085 13.0078 17.1944 13.0078 19.9913C13.0078 22.7882 13 22.8741 12.8438 23.0928C12.7578 23.21 12.5625 23.3897 12.4219 23.4835C12.1641 23.6632 12.1406 23.6632 9.33594 23.6632C6.53125 23.6632 6.50781 23.6632 6.25 23.4835C6.10938 23.3897 5.91406 23.21 5.82812 23.0928C5.67188 22.8741 5.66406 22.7882 5.66406 19.9913C5.66406 17.1944 5.67188 17.1085 5.82812 16.8897C5.91406 16.7725 6.10938 16.5928 6.25 16.4913C6.50781 16.3194 6.53125 16.3194 9.33594 16.3194C12.1406 16.3194 12.1641 16.3194 12.4219 16.4913ZM33.75 16.4913C33.8906 16.5928 34.0859 16.7725 34.1719 16.8897C34.3281 17.1085 34.3359 17.1944 34.3359 19.9913C34.3359 22.7882 34.3281 22.8741 34.1719 23.0928C34.0859 23.21 33.8906 23.3897 33.75 23.4835C33.4922 23.6632 33.4688 23.6632 30.6641 23.6632C27.8594 23.6632 27.8359 23.6632 27.5781 23.4835C27.4375 23.3897 27.2422 23.21 27.1562 23.0928C27 22.8741 26.9922 22.7882 26.9922 19.9913C26.9922 17.1944 27 17.1085 27.1562 16.8897C27.2422 16.7725 27.4375 16.5928 27.5781 16.4913C27.8359 16.3194 27.8594 16.3194 30.6641 16.3194C33.4688 16.3194 33.4922 16.3194 33.75 16.4913ZM23.2812 17.2491C23.7734 17.6007 23.9453 18.1632 23.7188 18.6866C23.6562 18.8272 22.7344 19.8038 21.6719 20.8585C19.5391 22.9757 19.4062 23.0616 18.8047 22.8819C18.5625 22.8116 18.2422 22.546 17.4531 21.7725C16.8828 21.21 16.3594 20.6397 16.2969 20.4991C15.9453 19.7647 16.4062 18.9288 17.2188 18.8428C17.6641 18.7882 17.9609 18.9522 18.6172 19.585L19.1406 20.1085L20.6094 18.6397C21.5078 17.7413 22.1641 17.1475 22.3047 17.1007C22.6094 17.0069 23.0391 17.0694 23.2812 17.2491ZM12.4219 26.5147C12.5703 26.6085 12.7578 26.796 12.8516 26.9444C13 27.2022 13.0078 27.3428 13.0078 30.0303C13.0078 32.71 13 32.8585 12.8516 33.1163C12.7578 33.2803 12.5469 33.46 12.3438 33.5616C12.0078 33.7413 11.9453 33.7413 9.33594 33.7413C6.73438 33.7413 6.66406 33.7413 6.32812 33.5616C6.07031 33.4366 5.92969 33.296 5.80469 33.0382C5.625 32.7022 5.625 32.6397 5.625 30.0303C5.63281 26.0616 5.375 26.3116 9.45312 26.3428C12.0078 26.3585 12.1641 26.3663 12.4219 26.5147ZM23.1016 26.5225C23.2188 26.6085 23.3984 26.8038 23.5 26.9444C23.6719 27.2022 23.6719 27.2257 23.6719 30.0303C23.6719 32.835 23.6719 32.8585 23.5 33.1163C23.3984 33.2569 23.2188 33.4522 23.1016 33.5382C22.8828 33.6944 22.7969 33.7022 20 33.7022C17.2031 33.7022 17.1172 33.6944 16.8984 33.5382C16.7812 33.4522 16.6016 33.2569 16.5078 33.1163C16.3281 32.8585 16.3281 32.835 16.3281 30.0538C16.3281 27.046 16.3281 27.0303 16.7422 26.6475C16.8438 26.546 17.0312 26.4366 17.1562 26.3975C17.2812 26.3585 18.6172 26.335 20.1328 26.3428C22.7891 26.3585 22.8906 26.3663 23.1016 26.5225ZM33.75 26.5147C33.9141 26.6085 34.0938 26.8194 34.2031 27.0225C34.375 27.3585 34.375 27.421 34.375 30.0303C34.375 32.6319 34.375 32.7022 34.2031 33.0382C34.0703 33.296 33.9297 33.4366 33.6719 33.5616C33.3359 33.7413 33.2656 33.7413 30.6641 33.7413C26.7422 33.7413 27 33.9913 26.9688 30.21C26.9453 27.4366 26.9766 27.1085 27.2891 26.7491C27.6328 26.3428 27.8516 26.3194 30.7812 26.3428C33.3281 26.3585 33.4922 26.3663 33.75 26.5147Z" fill="url(#paint1_linear_40_22)"/>
<path d="M7.96875 19.9913V21.3194H9.33594H10.7031V19.9913V18.6632H9.33594H7.96875V19.9913Z" fill="url(#paint2_linear_40_22)"/>
<path d="M29.2969 19.9913V21.3194H30.6641H32.0312V19.9913V18.6632H30.6641H29.2969V19.9913Z" fill="url(#paint3_linear_40_22)"/>
<path d="M8.00775 28.7647C7.98431 28.8194 7.9765 29.4288 7.98431 30.1085L8.00775 31.3585H9.33588H10.664V30.0303V28.7022L9.3515 28.6788C8.32806 28.6632 8.03119 28.6788 8.00775 28.7647Z" fill="url(#paint4_linear_40_22)"/>
<path d="M18.6719 30.0303V31.3975H20H21.3281V30.0303V28.6632H20H18.6719V30.0303Z" fill="url(#paint5_linear_40_22)"/>
<path d="M29.3359 28.7647C29.3124 28.8194 29.3046 29.4288 29.3124 30.1085L29.3359 31.3585H30.664H31.9921V30.0303V28.7022L30.6796 28.6788C29.6562 28.6632 29.3593 28.6788 29.3359 28.7647Z" fill="url(#paint6_linear_40_22)"/>
<defs>
<linearGradient id="paint0_linear_40_22" x1="20" y1="10.0694" x2="20" y2="0.00419044" gradientUnits="userSpaceOnUse">
<stop stop-color="white"/>
<stop offset="1" stop-color="#C1C1C1"/>
</linearGradient>
<linearGradient id="paint1_linear_40_22" x1="20" y1="39.9913" x2="20" y2="12.4132" gradientUnits="userSpaceOnUse">
<stop stop-color="white"/>
<stop offset="1" stop-color="#C1C1C1"/>
</linearGradient>
<linearGradient id="paint2_linear_40_22" x1="9.33594" y1="21.3194" x2="9.33594" y2="18.6632" gradientUnits="userSpaceOnUse">
<stop stop-color="white"/>
<stop offset="1" stop-color="#C1C1C1"/>
</linearGradient>
<linearGradient id="paint3_linear_40_22" x1="30.6641" y1="21.3194" x2="30.6641" y2="18.6632" gradientUnits="userSpaceOnUse">
<stop stop-color="white"/>
<stop offset="1" stop-color="#C1C1C1"/>
</linearGradient>
<linearGradient id="paint4_linear_40_22" x1="9.32269" y1="31.3585" x2="9.32269" y2="28.6734" gradientUnits="userSpaceOnUse">
<stop stop-color="white"/>
<stop offset="1" stop-color="#C1C1C1"/>
</linearGradient>
<linearGradient id="paint5_linear_40_22" x1="20" y1="31.3975" x2="20" y2="28.6632" gradientUnits="userSpaceOnUse">
<stop stop-color="white"/>
<stop offset="1" stop-color="#C1C1C1"/>
</linearGradient>
<linearGradient id="paint6_linear_40_22" x1="30.6508" y1="31.3585" x2="30.6508" y2="28.6734" gradientUnits="userSpaceOnUse">
<stop stop-color="white"/>
<stop offset="1" stop-color="#C1C1C1"/>
</linearGradient>
</defs>
</svg>
