<svg width="45" height="45" viewBox="0 0 45 45" fill="none" xmlns="http://www.w3.org/2000/svg">
<rect width="45" height="45" rx="10" fill="url(#paint0_linear_13_90)" fill-opacity="0.9"/>
<path d="M33.158 21.7881H36.0001C36.0001 14.4981 30.4964 9 23.1965 9V11.8421C28.9688 11.8421 33.158 16.0243 33.158 21.7881Z" fill="url(#paint1_linear_13_90)"/>
<path d="M23.2108 17.5263C26.1992 17.5263 27.4739 18.801 27.4739 21.7895H30.3159C30.3159 17.2066 27.7936 14.6842 23.2108 14.6842V17.5263ZM28.0735 25.2611C27.8005 25.0129 27.4417 24.8806 27.0728 24.892C26.704 24.9034 26.3541 25.0576 26.0969 25.3222L22.6963 28.8194C21.8778 28.6631 20.2323 28.1501 18.5384 26.4605C16.8445 24.7652 16.3315 23.1153 16.1795 22.3025L19.6738 18.9005C19.9387 18.6434 20.0932 18.2934 20.1046 17.9245C20.116 17.5556 19.9834 17.1967 19.7349 16.9238L14.4842 11.1501C14.2356 10.8763 13.89 10.7102 13.5209 10.6872C13.1519 10.6641 12.7883 10.7858 12.5075 11.0264L9.42387 13.671C9.17819 13.9176 9.03155 14.2457 9.01177 14.5933C8.99045 14.9485 8.58404 23.364 15.1094 29.8923C20.8021 35.5836 27.9329 36 29.8967 36C30.1838 36 30.36 35.9915 30.4069 35.9886C30.7543 35.9692 31.0823 35.8219 31.3277 35.5751L33.9708 32.49C34.2116 32.2094 34.3336 31.8459 34.3108 31.4769C34.288 31.1078 34.1222 30.7621 33.8486 30.5133L28.0735 25.2611Z" fill="url(#paint2_linear_13_90)"/>
<defs>
<linearGradient id="paint0_linear_13_90" x1="-3.05111" y1="45" x2="48.3484" y2="45" gradientUnits="userSpaceOnUse">
<stop stop-color="#C74662"/>
<stop offset="1" stop-color="#7251EA"/>
</linearGradient>
<linearGradient id="paint1_linear_13_90" x1="29.5983" y1="9" x2="29.5983" y2="21.7881" gradientUnits="userSpaceOnUse">
<stop stop-color="white"/>
<stop offset="1" stop-color="#C1C1C1"/>
</linearGradient>
<linearGradient id="paint2_linear_13_90" x1="21.6567" y1="10.6844" x2="21.6567" y2="36" gradientUnits="userSpaceOnUse">
<stop stop-color="white"/>
<stop offset="1" stop-color="#C1C1C1"/>
</linearGradient>
</defs>
</svg>
