<svg width="45" height="45" viewBox="0 0 45 45" fill="none" xmlns="http://www.w3.org/2000/svg">
<rect width="45" height="45" rx="10" fill="url(#paint0_linear_36_25)" fill-opacity="0.9"/>
<path d="M37.9632 29.6046C37.969 29.2655 37.9554 28.9221 37.9239 28.5709C37.5626 22.7492 34.8729 20.2532 34.8729 20.2532L34.8714 20.2537C33.9487 19.3014 32.6573 18.7066 31.2246 18.7066C30.4437 18.7066 29.7099 18.8936 29.0502 19.2108L29.0405 19.2055C29.0405 19.2055 28.9683 19.2457 28.8487 19.3106C28.8022 19.3353 28.7523 19.3542 28.7063 19.3813L28.7039 19.3809C28.7039 19.3809 28.6985 19.3847 28.6971 19.3852C28.6869 19.391 28.6777 19.3978 28.6675 19.4046C28.0999 19.6947 26.9359 20.2305 25.6203 20.5274C24.7102 20.7449 24.6225 20.0076 24.6177 19.8105V19.4341C24.5847 19.0307 24.3745 18.2823 23.3157 18.1162V13.4235C23.3171 13.424 23.3181 13.425 23.3196 13.425L23.3249 11.7868C23.3249 11.7868 23.2081 10.2426 23.8839 9.62749C23.9056 9.60569 23.9255 9.58341 23.9473 9.56355C23.9565 9.5558 23.9623 9.54563 23.9715 9.53981C23.9764 9.53691 23.9802 9.53691 23.9831 9.53352C24.4322 9.14263 25.0124 9.07917 25.3559 9.08063C25.446 9.08499 26.9403 9.1993 26.9403 11.2632V14.1268H26.9446C26.9688 15.6643 28.2176 16.9033 29.7603 16.9033C31.0967 16.9033 32.1962 15.9675 32.4844 14.7192C32.4893 14.7071 32.4951 14.7028 32.4994 14.6892C32.5624 14.4974 32.5672 14.3472 32.5566 14.2179C32.5566 14.216 32.558 14.2135 32.558 14.2106C32.558 14.2029 32.5532 14.1956 32.5532 14.1874C32.543 14.1065 32.5324 14.0397 32.513 13.9878C32.5052 13.9689 32.5009 13.952 32.4917 13.9345C32.466 13.8788 32.4437 13.8415 32.4437 13.8415L32.4336 13.8474C32.3154 13.6725 32.1245 13.5504 31.8978 13.5504C31.5893 13.5504 31.3486 13.7689 31.2774 14.0547C31.2706 14.0765 31.2609 14.1021 31.2517 14.1268H31.2444C31.2444 14.1268 31.2449 14.1404 31.2449 14.1462C31.1335 14.4596 30.9165 14.9789 30.6593 15.1198C30.3774 15.3189 29.9356 15.5141 29.4571 15.2816C28.8933 14.9755 28.4999 14.3942 28.4999 13.7069C28.4999 13.657 28.5101 13.6115 28.514 13.563H28.4999V11.5732V10.2741V10.1424C28.4999 9.57566 28.1769 9.00119 27.9298 8.64324C27.9197 8.62725 27.908 8.61175 27.8969 8.59577C27.847 8.52602 27.801 8.46256 27.7637 8.41413H27.7482C27.1234 7.63089 26.172 7.11794 25.0924 7.11794C23.5952 7.11794 22.3401 8.08911 21.8853 9.43228C21.802 9.75536 21.6843 10.5183 21.6843 12.2538V18.0905C20.5179 18.1568 20.3891 19.1038 20.3823 19.4361V19.7374C20.36 20.0943 20.1774 20.804 19.0706 20.4949C17.9517 20.213 17.0324 19.7475 16.5935 19.4976C16.5281 19.4555 16.4608 19.4177 16.393 19.3789C16.3421 19.3474 16.3106 19.3281 16.3106 19.3281V19.3324C15.5923 18.9372 14.7703 18.7061 13.8902 18.7061C12.8139 18.7061 11.8166 19.0428 10.9951 19.6143L10.9932 19.6129C10.9932 19.6129 10.8958 19.6788 10.7432 19.8028C10.4381 20.0445 10.161 20.3196 9.91787 20.6233C8.9031 21.7998 7.49599 24.1273 7.13998 28.1447C7.04116 28.7928 7.01646 29.4283 7.0494 30.0434C7.0494 30.0676 7.04698 30.0904 7.04698 30.1141C7.04843 30.1141 7.05085 30.1141 7.0523 30.1141C7.21409 32.7767 8.5621 34.9971 10.7171 35.6762C12.6013 36.2691 14.6517 35.5401 16.2457 33.9484L16.2443 33.9528C16.2443 33.9528 16.2603 33.9349 16.284 33.9078C16.3538 33.8385 16.423 33.7683 16.4904 33.6951C16.9103 33.2781 17.8524 32.4454 19.1612 31.871C19.2077 31.8516 19.2663 31.8274 19.3414 31.8002C19.3535 31.7939 19.3671 31.791 19.3792 31.7852C20.2835 31.4549 22.9136 30.7293 25.9889 32.0119C27.3476 32.6421 28.3997 33.4965 28.854 33.9C28.8564 33.9034 28.8594 33.9048 28.8618 33.9078C29.0153 34.0443 29.1049 34.1315 29.1049 34.1315L29.1015 34.1136C30.6399 35.4786 32.5309 36.0831 34.2829 35.5314C36.5197 34.8261 37.8876 32.4633 37.9612 29.6661C37.9627 29.6646 37.9646 29.6632 37.9661 29.6632C37.9646 29.6423 37.9632 29.6239 37.9632 29.6046ZM16.8362 26.988C16.8633 27.6947 16.2772 27.8182 15.9774 27.8361H15.648C15.0997 27.8332 14.9965 28.212 14.9801 28.4314V28.8247C14.9801 29.5411 14.5025 29.6733 14.239 29.6922H13.8602C13.214 29.6922 13.1598 29.0839 13.1559 28.9235V28.4164C13.1486 27.8836 12.6648 27.839 12.5291 27.8366H12.3247C11.4931 27.8429 11.3269 27.3968 11.3008 27.1265V26.924C11.3075 26.0953 12.0244 26.0163 12.2579 26.0124H12.5165C13.044 26.0095 13.1424 25.6719 13.1564 25.483V25.02C13.1564 24.2348 13.8481 24.1607 14.0733 24.1563C14.1004 24.1553 14.981 24.1461 14.981 25.0325V25.4385C14.9869 25.6031 15.0561 26.0192 15.6253 26.0129H15.9328C16.1842 26.0207 16.8376 26.1142 16.8376 26.9245V26.988H16.8362Z" fill="url(#paint1_linear_36_25)"/>
<defs>
<linearGradient id="paint0_linear_36_25" x1="-3.05111" y1="45" x2="48.3484" y2="45" gradientUnits="userSpaceOnUse">
<stop stop-color="#C74662"/>
<stop offset="1" stop-color="#7251EA"/>
</linearGradient>
<linearGradient id="paint1_linear_36_25" x1="22.5009" y1="7.11794" x2="22.5009" y2="35.8811" gradientUnits="userSpaceOnUse">
<stop stop-color="white"/>
<stop offset="1" stop-color="#C1C1C1"/>
</linearGradient>
</defs>
</svg>
