<svg width="64" height="64" viewBox="0 0 64 64" fill="none" xmlns="http://www.w3.org/2000/svg">
<rect width="64" height="64" rx="12" fill="#D9D9D9"/>
<rect width="64" height="64" rx="12" fill="url(#paint0_linear_38_21)"/>
<path d="M32 13.25C28.3533 13.25 24.8559 14.6987 22.2773 17.2773C19.6987 19.8559 18.25 23.3533 18.25 27C18.25 41.05 30.75 50.1375 31.275 50.5125C31.4867 50.6632 31.7401 50.7442 32 50.7442C32.2599 50.7442 32.5133 50.6632 32.725 50.5125C33.25 50.1375 45.75 41.05 45.75 27C45.75 23.3533 44.3013 19.8559 41.7227 17.2773C39.1441 14.6987 35.6467 13.25 32 13.25ZM32 33.25C30.7639 33.25 29.5555 32.8834 28.5277 32.1967C27.4999 31.5099 26.6988 30.5338 26.2258 29.3918C25.7527 28.2497 25.6289 26.9931 25.8701 25.7807C26.1112 24.5683 26.7065 23.4547 27.5806 22.5806C28.4547 21.7065 29.5683 21.1112 30.7807 20.8701C31.9931 20.6289 33.2497 20.7527 34.3918 21.2258C35.5338 21.6988 36.5099 22.4999 37.1967 23.5277C37.8834 24.5555 38.25 25.7639 38.25 27C38.25 28.6576 37.5915 30.2473 36.4194 31.4194C35.2473 32.5915 33.6576 33.25 32 33.25Z" fill="url(#paint1_linear_38_21)"/>
<defs>
<linearGradient id="paint0_linear_38_21" x1="-4.33936" y1="64" x2="68.7622" y2="64" gradientUnits="userSpaceOnUse">
<stop stop-color="#C74662"/>
<stop offset="1" stop-color="#7251EA"/>
</linearGradient>
<linearGradient id="paint1_linear_38_21" x1="32" y1="13.25" x2="32" y2="50.7442" gradientUnits="userSpaceOnUse">
<stop stop-color="white"/>
<stop offset="1" stop-color="#C1C1C1"/>
</linearGradient>
</defs>
</svg>
