<svg width="45" height="45" viewBox="0 0 45 45" fill="none" xmlns="http://www.w3.org/2000/svg">
<rect width="45" height="45" rx="10" fill="url(#paint0_linear_36_23)" fill-opacity="0.9"/>
<path d="M14.5635 9.06512C14.1838 9.23387 14.0625 9.51336 14.0625 10.2147V10.6788H12.8654C11.5102 10.6788 11.1727 10.7262 10.6031 11.0057C10.118 11.2378 9.56426 11.7915 9.33223 12.2661C9.04219 12.8514 9 13.1468 9 14.5389V15.794H22.5H36V14.5389C36 13.1468 35.9578 12.8514 35.6678 12.2661C35.441 11.7968 34.882 11.2378 34.4021 11.0057C33.9645 10.7895 33.4688 10.6788 32.9309 10.6788H32.5248L32.509 12.0341C32.4932 13.5159 32.4826 13.5792 32.1609 13.8112C31.9605 13.9641 31.5334 13.98 31.3225 13.8481C30.9586 13.6214 30.9691 13.6636 30.9375 11.4909C30.9111 9.60828 30.9059 9.51863 30.8004 9.38152C30.4313 8.88582 29.7984 8.87527 29.4768 9.35515C29.3713 9.51336 29.3555 9.59773 29.3555 10.104V10.6788H28.3799H27.4043V12.0341C27.4043 13.2997 27.399 13.4052 27.2988 13.5686C26.9771 14.096 26.223 14.0696 25.9436 13.5264C25.8223 13.2997 25.8223 13.2575 25.8223 11.4593C25.8223 9.42898 25.8117 9.37098 25.5006 9.14422C25.2633 8.97547 24.8414 8.97019 24.6305 9.1284C24.3141 9.36043 24.2666 9.48172 24.2508 10.104L24.2297 10.6788H23.2857H22.3418V11.9866C22.3418 13.2364 22.3365 13.305 22.2258 13.5264C21.9516 14.0538 21.208 14.096 20.8811 13.595C20.7967 13.4684 20.7861 13.268 20.7598 11.4909C20.7334 9.60828 20.7281 9.51863 20.6227 9.38152C20.4275 9.11258 20.2482 9.01765 19.9529 9.01765C19.7473 9.01765 19.6313 9.0493 19.4994 9.14422C19.2463 9.32879 19.1777 9.53445 19.1777 10.1514V10.6788H18.2021H17.2266V12.0341C17.2266 13.2997 17.2213 13.4052 17.1211 13.5686C16.8996 13.9325 16.4461 14.0485 16.0664 13.8376C15.6709 13.6161 15.6762 13.6319 15.6445 11.4329C15.6182 9.55555 15.6129 9.4659 15.5074 9.32351C15.2912 9.0282 14.8957 8.91746 14.5635 9.06512Z" fill="url(#paint1_linear_36_23)"/>
<path d="M9 25.3811C9 33.1964 9 33.402 9.10547 33.7975C9.2373 34.3302 9.46934 34.7257 9.86484 35.1264C10.2656 35.522 10.6611 35.754 11.1938 35.8858C11.5945 35.9913 11.8002 35.9913 22.5 35.9913C33.184 35.9913 33.4055 35.9913 33.8063 35.8858C34.36 35.7487 34.6922 35.5536 35.1088 35.1475C35.5307 34.7309 35.7574 34.3407 35.8945 33.7975C36 33.402 36 33.1964 36 25.3811V17.3761H22.5H9V25.3811ZM17.3848 20.1288C17.4797 20.1973 17.6115 20.3186 17.6695 20.3977C17.775 20.5454 17.7803 20.6034 17.7803 22.4913C17.7803 24.3792 17.775 24.4372 17.6695 24.5848C17.6115 24.6639 17.4797 24.7852 17.3848 24.8485C17.2107 24.9698 17.1949 24.9698 15.3018 24.9698C13.4086 24.9698 13.3928 24.9698 13.2188 24.8485C13.1238 24.7852 12.992 24.6639 12.934 24.5848C12.8285 24.4372 12.8232 24.3792 12.8232 22.4913C12.8232 20.6034 12.8285 20.5454 12.934 20.3977C12.992 20.3186 13.1238 20.1973 13.2188 20.1288C13.3928 20.0128 13.4086 20.0128 15.3018 20.0128C17.1949 20.0128 17.2107 20.0128 17.3848 20.1288ZM31.7813 20.1288C31.8762 20.1973 32.008 20.3186 32.066 20.3977C32.1715 20.5454 32.1768 20.6034 32.1768 22.4913C32.1768 24.3792 32.1715 24.4372 32.066 24.5848C32.008 24.6639 31.8762 24.7852 31.7813 24.8485C31.6072 24.9698 31.5914 24.9698 29.6982 24.9698C27.8051 24.9698 27.7893 24.9698 27.6152 24.8485C27.5203 24.7852 27.3885 24.6639 27.3305 24.5848C27.225 24.4372 27.2197 24.3792 27.2197 22.4913C27.2197 20.6034 27.225 20.5454 27.3305 20.3977C27.3885 20.3186 27.5203 20.1973 27.6152 20.1288C27.7893 20.0128 27.8051 20.0128 29.6982 20.0128C31.5914 20.0128 31.6072 20.0128 31.7813 20.1288ZM24.7148 20.6403C25.0471 20.8776 25.1631 21.2573 25.0102 21.6106C24.968 21.7055 24.3457 22.3647 23.6285 23.0766C22.1889 24.5057 22.0992 24.5637 21.6932 24.4425C21.5297 24.395 21.3135 24.2157 20.7809 23.6936C20.3959 23.3139 20.0426 22.929 20.0004 22.8341C19.7631 22.3384 20.0742 21.7741 20.6227 21.7161C20.9232 21.6792 21.1236 21.7899 21.5666 22.2171L21.9199 22.5704L22.9113 21.579C23.5178 20.9725 23.9607 20.5718 24.0557 20.5401C24.2613 20.4768 24.5514 20.519 24.7148 20.6403ZM17.3848 26.8946C17.485 26.9579 17.6115 27.0845 17.6748 27.1846C17.775 27.3587 17.7803 27.4536 17.7803 29.2677C17.7803 31.0764 17.775 31.1766 17.6748 31.3507C17.6115 31.4614 17.4691 31.5827 17.332 31.6512C17.1053 31.7725 17.0631 31.7725 15.3018 31.7725C13.5457 31.7725 13.4982 31.7725 13.2715 31.6512C13.0975 31.5669 13.0025 31.472 12.9182 31.2979C12.7969 31.0712 12.7969 31.029 12.7969 29.2677C12.8021 26.5887 12.6281 26.7575 15.3809 26.7786C17.1053 26.7891 17.2107 26.7944 17.3848 26.8946ZM24.5936 26.8999C24.6727 26.9579 24.7939 27.0897 24.8625 27.1846C24.9785 27.3587 24.9785 27.3745 24.9785 29.2677C24.9785 31.1608 24.9785 31.1766 24.8625 31.3507C24.7939 31.4456 24.6727 31.5774 24.5936 31.6354C24.4459 31.7409 24.3879 31.7462 22.5 31.7462C20.6121 31.7462 20.5541 31.7409 20.4064 31.6354C20.3273 31.5774 20.2061 31.4456 20.1428 31.3507C20.0215 31.1766 20.0215 31.1608 20.0215 29.2835C20.0215 27.2532 20.0215 27.2427 20.301 26.9843C20.3695 26.9157 20.4961 26.8419 20.5805 26.8155C20.6648 26.7891 21.5666 26.7733 22.5896 26.7786C24.3826 26.7891 24.4512 26.7944 24.5936 26.8999ZM31.7813 26.8946C31.892 26.9579 32.0133 27.1003 32.0871 27.2374C32.2031 27.4641 32.2031 27.5063 32.2031 29.2677C32.2031 31.0237 32.2031 31.0712 32.0871 31.2979C31.9975 31.472 31.9025 31.5669 31.7285 31.6512C31.5018 31.7725 31.4543 31.7725 29.6982 31.7725C27.051 31.7725 27.225 31.9413 27.2039 29.3889C27.1881 27.5169 27.2092 27.2954 27.4201 27.0528C27.6521 26.7786 27.7998 26.7628 29.7773 26.7786C31.4965 26.7891 31.6072 26.7944 31.7813 26.8946Z" fill="url(#paint2_linear_36_23)"/>
<path d="M14.3789 22.4913V23.3878H15.3018H16.2246V22.4913V21.5948H15.3018H14.3789V22.4913Z" fill="url(#paint3_linear_36_23)"/>
<path d="M28.7754 22.4913V23.3878H29.6982H30.6211V22.4913V21.5948H29.6982H28.7754V22.4913Z" fill="url(#paint4_linear_36_23)"/>
<path d="M14.4052 28.4134C14.3894 28.4503 14.3842 28.8616 14.3894 29.3204L14.4052 30.1641H15.3017H16.1982V29.2677V28.3712L15.3123 28.3553C14.6215 28.3448 14.4211 28.3553 14.4052 28.4134Z" fill="url(#paint5_linear_36_23)"/>
<path d="M21.6035 29.2677V30.1905H22.5H23.3965V29.2677V28.3448H22.5H21.6035V29.2677Z" fill="url(#paint6_linear_36_23)"/>
<path d="M28.8017 28.4134C28.7859 28.4503 28.7806 28.8616 28.7859 29.3204L28.8017 30.1641H29.6982H30.5947V29.2677V28.3712L29.7088 28.3553C29.0179 28.3448 28.8176 28.3553 28.8017 28.4134Z" fill="url(#paint7_linear_36_23)"/>
<defs>
<linearGradient id="paint0_linear_36_23" x1="-3.05111" y1="45" x2="48.3484" y2="45" gradientUnits="userSpaceOnUse">
<stop stop-color="#C74662"/>
<stop offset="1" stop-color="#7251EA"/>
</linearGradient>
<linearGradient id="paint1_linear_36_23" x1="22.5" y1="15.794" x2="22.5" y2="9" gradientUnits="userSpaceOnUse">
<stop stop-color="white"/>
<stop offset="1" stop-color="#C1C1C1"/>
</linearGradient>
<linearGradient id="paint2_linear_36_23" x1="22.5" y1="35.9913" x2="22.5" y2="17.3761" gradientUnits="userSpaceOnUse">
<stop stop-color="white"/>
<stop offset="1" stop-color="#C1C1C1"/>
</linearGradient>
<linearGradient id="paint3_linear_36_23" x1="15.3018" y1="23.3878" x2="15.3018" y2="21.5948" gradientUnits="userSpaceOnUse">
<stop stop-color="white"/>
<stop offset="1" stop-color="#C1C1C1"/>
</linearGradient>
<linearGradient id="paint4_linear_36_23" x1="29.6982" y1="23.3878" x2="29.6982" y2="21.5948" gradientUnits="userSpaceOnUse">
<stop stop-color="white"/>
<stop offset="1" stop-color="#C1C1C1"/>
</linearGradient>
<linearGradient id="paint5_linear_36_23" x1="15.2928" y1="30.1641" x2="15.2928" y2="28.3517" gradientUnits="userSpaceOnUse">
<stop stop-color="white"/>
<stop offset="1" stop-color="#C1C1C1"/>
</linearGradient>
<linearGradient id="paint6_linear_36_23" x1="22.5" y1="30.1905" x2="22.5" y2="28.3448" gradientUnits="userSpaceOnUse">
<stop stop-color="white"/>
<stop offset="1" stop-color="#C1C1C1"/>
</linearGradient>
<linearGradient id="paint7_linear_36_23" x1="29.6893" y1="30.1641" x2="29.6893" y2="28.3517" gradientUnits="userSpaceOnUse">
<stop stop-color="white"/>
<stop offset="1" stop-color="#C1C1C1"/>
</linearGradient>
</defs>
</svg>
