<svg width="45" height="45" viewBox="0 0 45 45" fill="none" xmlns="http://www.w3.org/2000/svg">
<rect width="45" height="45" rx="10" fill="url(#paint0_linear_13_91)" fill-opacity="0.9"/>
<path d="M22.5001 25.2C26.2221 25.2 29.2394 21.5735 29.2394 17.1C29.2394 12.6265 26.2221 9 22.5001 9C18.778 9 15.7607 12.6265 15.7607 17.1C15.7607 21.5735 18.778 25.2 22.5001 25.2Z" fill="url(#paint1_linear_13_91)"/>
<path d="M35.7091 32.085C34.496 29.655 32.2046 27.63 29.2393 26.415C28.4306 26.145 27.4871 26.145 26.8132 26.55C25.4653 27.36 24.1174 27.765 22.5 27.765C20.8826 27.765 19.5347 27.36 18.1868 26.55C17.5129 26.28 16.5694 26.145 15.7607 26.55C12.7954 27.765 10.504 29.79 9.29093 32.22C8.34742 33.975 9.83007 36 11.8519 36H33.1481C35.1699 36 36.6526 33.975 35.7091 32.085Z" fill="url(#paint2_linear_13_91)"/>
<defs>
<linearGradient id="paint0_linear_13_91" x1="-3.05111" y1="45" x2="48.3484" y2="45" gradientUnits="userSpaceOnUse">
<stop stop-color="#C74662"/>
<stop offset="1" stop-color="#7251EA"/>
</linearGradient>
<linearGradient id="paint1_linear_13_91" x1="22.5001" y1="9" x2="22.5001" y2="25.2" gradientUnits="userSpaceOnUse">
<stop stop-color="white"/>
<stop offset="1" stop-color="#C1C1C1"/>
</linearGradient>
<linearGradient id="paint2_linear_13_91" x1="22.5" y1="26.2268" x2="22.5" y2="36" gradientUnits="userSpaceOnUse">
<stop stop-color="white"/>
<stop offset="1" stop-color="#C1C1C1"/>
</linearGradient>
</defs>
</svg>
