<svg width="92" height="47" viewBox="0 0 92 47" fill="none" xmlns="http://www.w3.org/2000/svg">
<g filter="url(#filter0_d_7_56)">
<path d="M11.867 0.288278C9.27536 0.855684 6.62854 2.81415 5.32351 5.15699C3.96334 7.59134 4.0001 7.24358 4.0001 19.5069C4.0001 29.647 4.01848 30.5804 4.33095 31.5688C5.45217 35.1563 7.97033 37.6822 11.4259 38.7071C12.3082 38.9634 13.9257 39 24.4946 39C36.4605 39 36.5891 39 37.067 38.6156C37.7287 38.1031 38.0228 37.4442 38.1699 36.1813C38.4088 34.0032 39.5484 32.4474 41.5887 31.5322C42.4893 31.1112 42.8937 31.0563 45.2648 30.9831C48.0219 30.9099 49.6027 31.0929 50.6688 31.5871C52.3965 32.4108 53.6097 34.1679 53.8302 36.1813C53.9773 37.4442 54.2714 38.1031 54.9331 38.6156C55.411 39 55.5396 39 67.5055 39C78.0744 39 79.6919 38.9634 80.5742 38.7071C84.0298 37.6822 86.5479 35.1563 87.6691 31.5688C87.9816 30.5804 88 29.647 88 19.5984C88 9.71454 87.9632 8.59803 87.6691 7.51813C86.6766 3.94896 83.6254 1.03872 80.0595 0.288278C78.2582 -0.096094 13.6132 -0.096094 11.867 0.288278ZM14.8447 2.68603C15.3226 2.86906 15.6902 3.76593 15.5064 4.26012C15.2675 4.91904 14.9366 5.08377 13.7786 5.2302C11.6832 5.48645 9.91869 6.8592 9.42241 8.57972C9.33051 8.94579 9.2386 10.2636 9.2386 11.49C9.2386 13.5583 9.20184 13.7596 8.81585 14.2172C8.30119 14.8212 7.51081 14.8578 6.97777 14.3087C6.64692 13.9975 6.55502 13.6498 6.51826 12.4967C6.40797 10.4101 6.75721 8.06723 7.30863 6.89581C7.98871 5.44984 9.2386 4.1503 10.5804 3.49138C12.0876 2.75924 14.036 2.39317 14.8447 2.68603ZM62.7449 6.21858C62.9103 6.38331 63.6823 8.06723 64.4727 9.98909C65.2447 11.8926 65.9064 13.485 65.9248 13.5033C65.9431 13.54 66.6232 11.9842 67.4136 10.0623C68.204 8.14044 68.9943 6.40162 69.1598 6.18198C69.8215 5.37663 71.3654 5.96234 71.3654 7.00563C71.3654 7.66455 67.2849 17.2922 66.8254 17.7131C66.2924 18.2073 65.6674 18.2439 65.1344 17.8046C64.7484 17.4935 60.5208 7.62795 60.5208 7.04224C60.5208 5.90743 61.9178 5.37663 62.7449 6.21858ZM78.8464 5.96234C79.5081 6.16367 79.986 6.47483 80.519 7.04224C82.0814 8.72615 82.0263 10.9958 80.4088 12.6065L79.6184 13.4118L80.6293 14.9676C81.1991 15.8279 81.6586 16.743 81.6586 16.9627C81.6586 17.6582 81.0153 18.1707 80.225 18.0975C79.5816 18.0426 79.4713 17.9328 78.1296 15.8828C76.8245 13.9426 76.6407 13.7413 76.1444 13.7413H75.593V15.6082C75.593 17.0725 75.5379 17.5301 75.2805 17.8046C74.8762 18.2439 73.8652 18.2439 73.3873 17.768C73.0381 17.4203 73.0197 17.164 73.0197 12.0757C73.0197 8.67124 73.0932 6.63956 73.2219 6.40162C73.3322 6.20028 73.5895 5.96234 73.8101 5.87082C74.4902 5.59627 77.8171 5.66948 78.8464 5.96234ZM8.85261 17.1457C9.1467 17.5301 9.2386 17.8962 9.2386 18.793C9.2386 20.2024 9.01803 20.8247 8.42985 21.081C7.19834 21.6484 6.38959 20.5685 6.51826 18.5551C6.61016 17.2006 6.97777 16.6698 7.87843 16.6698C8.30119 16.6698 8.5769 16.798 8.85261 17.1457Z" fill="url(#paint0_linear_7_56)"/>
</g>
<defs>
<filter id="filter0_d_7_56" x="0" y="0" width="92" height="47" filterUnits="userSpaceOnUse" color-interpolation-filters="sRGB">
<feFlood flood-opacity="0" result="BackgroundImageFix"/>
<feColorMatrix in="SourceAlpha" type="matrix" values="0 0 0 0 0 0 0 0 0 0 0 0 0 0 0 0 0 0 127 0" result="hardAlpha"/>
<feOffset dy="4"/>
<feGaussianBlur stdDeviation="2"/>
<feComposite in2="hardAlpha" operator="out"/>
<feColorMatrix type="matrix" values="0 0 0 0 0 0 0 0 0 0 0 0 0 0 0 0 0 0 0.25 0"/>
<feBlend mode="normal" in2="BackgroundImageFix" result="effect1_dropShadow_7_56"/>
<feBlend mode="normal" in="SourceGraphic" in2="effect1_dropShadow_7_56" result="shape"/>
</filter>
<linearGradient id="paint0_linear_7_56" x1="10.0293" y1="-3.39227" x2="85.924" y2="43.0768" gradientUnits="userSpaceOnUse">
<stop stop-color="#6F7BC6"/>
<stop offset="1" stop-color="#6653B4"/>
</linearGradient>
</defs>
</svg>
